Cowboys.&.Aleins.Extended.2011.BRrip.720p.Dual.Audio.Eng-Hindi~MSBHATTI

IMDB:- http://www.imdb.com/title/tt0409847/

PLOT:- A spaceship arrives in Arizona, 1873, to take over the Earth, starting with the Wild West region. A posse of cowboys and natives are all that stand in their way.

Director: Jon Favreau
Writers: Roberto Orci (screenplay), Alex Kurtzman (screenplay)
Stars: Daniel Craig, Harrison Ford and Olivia Wilde 

INFO:-
General
Complete name                    : Cowboys.&.Aleins.Extended.2011.BRrip.720p.Dual.Audio.Eng-Hindi~MSBHATTI
Format                           : Matroska
File size                        : 3.09 GiB
Duration                         : 2h 15mn
Overall bit rate                 : 3 270 Kbps
Encoded date                     : UTC 2011-12-25 06:19:18
Writing application              : mkvmerge v3.3.0 ('Language') built on Mar 24 2010 14:59:24
Writing library                  : libebml v0.8.0 + libmatroska v0.9.0

Video
ID                               : 1
Format                           : AVC
Format/Info                      : Advanced Video Codec
Format profile                   : High@L4.1
Format settings, CABAC           : Yes
Format settings, ReFrames        : 5 frames
Format settings, GOP             : M=4, N=16
Codec ID                         : V_MPEG4/ISO/AVC
Duration                         : 2h 15mn
Bit rate                         : 2 500 Kbps
Width                            : 1 280 pixels
Height                           : 528 pixels
Display aspect ratio             : 2.40:1
Frame rate                       : 23.976 fps
Color space                      : YUV
Chroma subsampling               : 4:2:0
Bit depth                        : 8 bits
Scan type                        : Progressive
Bits/(Pixel*Frame)               : 0.154
Stream size                      : 2.30 GiB (75%)
Writing library                  : x264 core 116 r2074 2641b9e
Encoding settings                : cabac=1 / ref=5 / deblock=1:-3:-3 / analyse=0x3:0x113 / me=umh / subme=8 / psy=1 / psy_rd=1.00:0.00 / mixed_ref=1 / me_range=16 / chroma_me=1 / trellis=0 / 8x8dct=1 / cqm=0 / deadzone=21,11 / fast_pskip=1 / chroma_qp_offset=-4 / threads=12 / sliced_threads=0 / nr=0 / decimate=0 / interlaced=0 / bluray_compat=0 / constrained_intra=0 / bframes=3 / b_pyramid=2 / b_adapt=1 / b_bias=0 / direct=1 / weightb=1 / open_gop=0 / weightp=2 / keyint=250 / keyint_min=23 / scenecut=40 / intra_refresh=0 / rc_lookahead=40 / rc=2pass / mbtree=1 / bitrate=2500 / ratetol=1.0 / qcomp=0.60 / qpmin=0 / qpmax=69 / qpstep=4 / cplxblur=20.0 / qblur=0.5 / ip_ratio=1.40 / aq=1:1.00
Language                         : English

Audio #1
ID                               : 2
Format                           : AC-3
Format/Info                      : Audio Coding 3
Mode extension                   : CM (complete main)
Codec ID                         : A_AC3
Duration                         : 2h 15mn
Bit rate mode                    : Constant
Bit rate                         : 640 Kbps
Channel(s)                       : 6 channels
Channel positions                : Front: L C R, Side: L R, LFE
Sampling rate                    : 48.0 KHz
Bit depth                        : 16 bits
Compression mode                 : Lossy
Stream size                      : 619 MiB (20%)
Title                            : MSBHATTI
Language                         : English

Audio #2
ID                               : 4
Format                           : MPEG Audio
Format version                   : Version 1
Format profile                   : Layer 3
Mode                             : Joint stereo
Codec ID                         : A_MPEG/L3
Codec ID/Hint                    : MP3
Duration                         : 2h 15mn
Bit rate mode                    : Constant
Bit rate                         : 128 Kbps
Channel(s)                       : 2 channels
Sampling rate                    : 48.0 KHz
Compression mode                 : Lossy
Stream size                      : 124 MiB (4%)
Title                            : MSBHATTI
Writing library                  : LAME3.98.2
Language                         : Hindi

Text
ID                               : 3
Format                           : UTF-8
Codec ID                         : S_TEXT/UTF8
Codec ID/Info                    : UTF-8 Plain Text
Title                            : MSBHATTI
Language                         : English

Menu
00:00:00.000                     : :00:00:00.000
00:07:43.296                     : :00:07:43.296
00:17:40.726                     : :00:17:40.726
00:25:22.813                     : :00:25:22.813
00:31:17.918                     : :00:31:17.918
00:41:30.530                     : :00:41:30.530
00:49:32.177                     : :00:49:32.177
00:57:07.007                     : :00:57:07.007
01:02:31.206                     : :01:02:31.206
01:06:06.629                     : :01:06:06.629
01:12:43.567                     : :01:12:43.567
01:17:19.635                     : :01:17:19.635
01:23:04.396                     : :01:23:04.396
01:28:47.113                     : :01:28:47.113
01:40:42.870                     : :01:40:42.870
01:45:32.701                     : :01:45:32.701
01:49:28.478                     : :01:49:28.478
01:55:37.722                     : :01:55:37.722
02:02:14.660                     : :02:02:14.660
02:11:00.227                     : :02:11:00.227

SCREENSHOTS:-
[IMG]http://i.imgur.com/NyEDt.png[/IMG]
[IMG]http://i.imgur.com/vTSXz.png[/IMG]
[IMG]http://i.imgur.com/37RZW.png[/IMG]
[IMG]http://i.imgur.com/Ed3VK.jpg[/IMG]
[IMG]http://i.imgur.com/HnCfm.jpg[/IMG]
[IMG]http://i.imgur.com/apQ6u.jpg[/IMG]

NOTE:- IF U LIKE MY WORK SO COMMENT PLZ

REGARDS

MSBHATTI